<svg width="1920" height="1080" viewBox="0 0 1920 1080" xmlns="http://www.w3.org/2000/svg"><rect width="1920" height="1080" fill="#ffffff"/><path d="M1920,1080C1600.5,1161.6666666666667,305,1108.8333333333333,0,1080C-305,1051.1666666666667,59.83333333333333,926.3333333333334,90,907C120.16666666666667,887.6666666666666,150.83333333333334,1029.8333333333333,181,964C211.16666666666666,898.1666666666666,240.5,509.8333333333333,271,512C301.5,514.1666666666666,333.1666666666667,941.5,364,977C394.8333333333333,1012.5,425.5,791.3333333333334,456,725C486.5,658.6666666666666,516.5,526.3333333333334,547,579C577.5,631.6666666666666,608.6666666666666,987.1666666666666,639,1041C669.3333333333334,1094.8333333333333,698.5,913.6666666666666,729,902C759.5,890.3333333333334,791.5,955.1666666666666,822,971C852.5,986.8333333333334,881.8333333333334,1023,912,997C942.1666666666666,971,972.6666666666666,857.1666666666666,1003,815C1033.3333333333333,772.8333333333334,1063.5,804.5,1094,744C1124.5,683.5,1155.3333333333333,405.5,1186,452C1216.6666666666667,498.5,1247.5,977.8333333333334,1278,1023C1308.5,1068.1666666666667,1339,731.6666666666666,1369,723C1399,714.3333333333334,1428,968.1666666666666,1458,971C1488,973.8333333333334,1518.1666666666667,833.6666666666666,1549,740C1579.8333333333333,646.3333333333334,1612.3333333333333,389.1666666666667,1643,409C1673.6666666666667,428.8333333333333,1702.3333333333333,814.5,1733,859C1763.6666666666667,903.5,1796.3333333333333,720.8333333333334,1827,676C1857.6666666666667,631.1666666666666,1901.5,522.6666666666666,1917,590C1932.5,657.3333333333334,2239.5,998.3333333333334,1920,1080C1600.5,1161.6666666666667,305,1108.8333333333333,0,1080" fill="#24e0c1"/></svg>