<svg width="1920" height="1080" viewBox="0 0 1920 1080" xmlns="http://www.w3.org/2000/svg"><rect width="1920" height="1080" fill="#ffffff"/><path d="M1920,1080C1620.1666666666667,1196.8333333333333,300.3333333333333,1082.1666666666667,0,1080C-300.3333333333333,1077.8333333333333,78.5,1156.5,118,1067C157.5,977.5,197.5,576.8333333333334,237,543C276.5,509.1666666666667,314.6666666666667,841.8333333333334,355,864C395.3333333333333,886.1666666666666,438.8333333333333,771.8333333333334,479,676C519.1666666666666,580.1666666666666,556.8333333333334,313.8333333333333,596,289C635.1666666666666,264.1666666666667,673.5,453.5,714,527C754.5,600.5,798.3333333333334,783.8333333333334,839,730C879.6666666666666,676.1666666666666,918.5,207,958,204C997.5,201,1036,678.6666666666666,1076,712C1116,745.3333333333334,1158.3333333333333,460.1666666666667,1198,404C1237.6666666666667,347.8333333333333,1274.6666666666667,297.3333333333333,1314,375C1353.3333333333333,452.6666666666667,1394,898,1434,870C1474,842,1514,311.5,1554,207C1594,102.5,1633.1666666666667,214.33333333333334,1674,243C1714.8333333333333,271.6666666666667,1758,239.5,1799,379C1840,518.5,2219.8333333333335,963.1666666666666,1920,1080C1620.1666666666667,1196.8333333333333,300.3333333333333,1082.1666666666667,0,1080" fill="#44e024"/></svg>