<svg width="1920" height="1080" viewBox="0 0 1920 1080" xmlns="http://www.w3.org/2000/svg"><rect width="1920" height="1080" fill="#ffffff"/><path d="M1920,1080C1600.6666666666667,1138.1666666666667,298.3333333333333,1167.1666666666667,0,1080C-298.3333333333333,992.8333333333334,85.33333333333334,627,130,557C174.66666666666666,487,221.5,575.3333333333334,268,660C314.5,744.6666666666666,362.5,1058.8333333333333,409,1065C455.5,1071.1666666666667,501.8333333333333,759.5,547,697C592.1666666666666,634.5,634.5,712.1666666666666,680,690C725.5,667.8333333333334,773.6666666666666,533.6666666666666,820,564C866.3333333333334,594.3333333333334,912.1666666666666,820.3333333333334,958,872C1003.8333333333334,923.6666666666666,1049.5,892,1095,874C1140.5,856,1185,769.8333333333334,1231,764C1277,758.1666666666666,1325.3333333333333,790,1371,839C1416.6666666666667,888,1460.3333333333333,1100.6666666666667,1505,1058C1549.6666666666667,1015.3333333333334,1592.8333333333333,633.8333333333334,1639,583C1685.1666666666667,532.1666666666666,1735.8333333333333,728.3333333333334,1782,753C1828.1666666666667,777.6666666666666,1893,676.5,1916,731C1939,785.5,2239.3333333333335,1021.8333333333334,1920,1080C1600.6666666666667,1138.1666666666667,298.3333333333333,1167.1666666666667,0,1080" fill="#31f26b"/></svg>