<?xml version="1.0" standalone="no"?><svg xmlns="http://www.w3.org/2000/svg" viewBox="0 0 1440 320"><path fill="#00cba9" fill-opacity="1" d="M0,224L8.6,192C17.1,160,34,96,51,96C68.6,96,86,160,103,170.7C120,181,137,139,154,138.7C171.4,139,189,181,206,218.7C222.9,256,240,288,257,250.7C274.3,213,291,107,309,64C325.7,21,343,43,360,80C377.1,117,394,171,411,202.7C428.6,235,446,245,463,256C480,267,497,277,514,240C531.4,203,549,117,566,112C582.9,107,600,181,617,229.3C634.3,277,651,299,669,261.3C685.7,224,703,128,720,90.7C737.1,53,754,75,771,117.3C788.6,160,806,224,823,250.7C840,277,857,267,874,261.3C891.4,256,909,256,926,234.7C942.9,213,960,171,977,133.3C994.3,96,1011,64,1029,58.7C1045.7,53,1063,75,1080,74.7C1097.1,75,1114,53,1131,80C1148.6,107,1166,181,1183,176C1200,171,1217,85,1234,74.7C1251.4,64,1269,128,1286,149.3C1302.9,171,1320,149,1337,122.7C1354.3,96,1371,64,1389,48C1405.7,32,1423,32,1431,32L1440,32L1440,320L1431.4,320C1422.9,320,1406,320,1389,320C1371.4,320,1354,320,1337,320C1320,320,1303,320,1286,320C1268.6,320,1251,320,1234,320C1217.1,320,1200,320,1183,320C1165.7,320,1149,320,1131,320C1114.3,320,1097,320,1080,320C1062.9,320,1046,320,1029,320C1011.4,320,994,320,977,320C960,320,943,320,926,320C908.6,320,891,320,874,320C857.1,320,840,320,823,320C805.7,320,789,320,771,320C754.3,320,737,320,720,320C702.9,320,686,320,669,320C651.4,320,634,320,617,320C600,320,583,320,566,320C548.6,320,531,320,514,320C497.1,320,480,320,463,320C445.7,320,429,320,411,320C394.3,320,377,320,360,320C342.9,320,326,320,309,320C291.4,320,274,320,257,320C240,320,223,320,206,320C188.6,320,171,320,154,320C137.1,320,120,320,103,320C85.7,320,69,320,51,320C34.3,320,17,320,9,320L0,320Z"></path></svg>