<?xml version="1.0" standalone="no"?><svg xmlns="http://www.w3.org/2000/svg" viewBox="0 0 1440 320"><path fill="#ff5500" fill-opacity="1" d="M0,288L9.2,277.3C18.5,267,37,245,55,234.7C73.8,224,92,224,111,197.3C129.2,171,148,117,166,90.7C184.6,64,203,64,222,90.7C240,117,258,171,277,208C295.4,245,314,267,332,256C350.8,245,369,203,388,186.7C406.2,171,425,181,443,202.7C461.5,224,480,256,498,261.3C516.9,267,535,245,554,240C572.3,235,591,245,609,240C627.7,235,646,213,665,186.7C683.1,160,702,128,720,112C738.5,96,757,96,775,133.3C793.8,171,812,245,831,229.3C849.2,213,868,107,886,74.7C904.6,43,923,85,942,128C960,171,978,213,997,229.3C1015.4,245,1034,235,1052,234.7C1070.8,235,1089,245,1108,240C1126.2,235,1145,213,1163,218.7C1181.5,224,1200,256,1218,245.3C1236.9,235,1255,181,1274,133.3C1292.3,85,1311,43,1329,69.3C1347.7,96,1366,192,1385,192C1403.1,192,1422,96,1431,48L1440,0L1440,320L1430.8,320C1421.5,320,1403,320,1385,320C1366.2,320,1348,320,1329,320C1310.8,320,1292,320,1274,320C1255.4,320,1237,320,1218,320C1200,320,1182,320,1163,320C1144.6,320,1126,320,1108,320C1089.2,320,1071,320,1052,320C1033.8,320,1015,320,997,320C978.5,320,960,320,942,320C923.1,320,905,320,886,320C867.7,320,849,320,831,320C812.3,320,794,320,775,320C756.9,320,738,320,720,320C701.5,320,683,320,665,320C646.2,320,628,320,609,320C590.8,320,572,320,554,320C535.4,320,517,320,498,320C480,320,462,320,443,320C424.6,320,406,320,388,320C369.2,320,351,320,332,320C313.8,320,295,320,277,320C258.5,320,240,320,222,320C203.1,320,185,320,166,320C147.7,320,129,320,111,320C92.3,320,74,320,55,320C36.9,320,18,320,9,320L0,320Z"></path></svg>