<?xml version="1.0" standalone="no"?><svg xmlns="http://www.w3.org/2000/svg" viewBox="0 0 1440 320"><path fill="#e7008a" fill-opacity="0.7" d="M0,96L10.9,90.7C21.8,85,44,75,65,96C87.3,117,109,171,131,192C152.7,213,175,203,196,213.3C218.2,224,240,256,262,224C283.6,192,305,96,327,90.7C349.1,85,371,171,393,192C414.5,213,436,171,458,138.7C480,107,502,85,524,85.3C545.5,85,567,107,589,128C610.9,149,633,171,655,197.3C676.4,224,698,256,720,266.7C741.8,277,764,267,785,240C807.3,213,829,171,851,154.7C872.7,139,895,149,916,160C938.2,171,960,181,982,186.7C1003.6,192,1025,192,1047,197.3C1069.1,203,1091,213,1113,186.7C1134.5,160,1156,96,1178,90.7C1200,85,1222,139,1244,154.7C1265.5,171,1287,149,1309,144C1330.9,139,1353,149,1375,144C1396.4,139,1418,117,1429,106.7L1440,96L1440,320L1429.1,320C1418.2,320,1396,320,1375,320C1352.7,320,1331,320,1309,320C1287.3,320,1265,320,1244,320C1221.8,320,1200,320,1178,320C1156.4,320,1135,320,1113,320C1090.9,320,1069,320,1047,320C1025.5,320,1004,320,982,320C960,320,938,320,916,320C894.5,320,873,320,851,320C829.1,320,807,320,785,320C763.6,320,742,320,720,320C698.2,320,676,320,655,320C632.7,320,611,320,589,320C567.3,320,545,320,524,320C501.8,320,480,320,458,320C436.4,320,415,320,393,320C370.9,320,349,320,327,320C305.5,320,284,320,262,320C240,320,218,320,196,320C174.5,320,153,320,131,320C109.1,320,87,320,65,320C43.6,320,22,320,11,320L0,320Z"></path></svg>