<?xml version="1.0" standalone="no"?><svg xmlns="http://www.w3.org/2000/svg" viewBox="0 0 1440 320"><path fill="#5000ca" fill-opacity="3.9" d="M0,96L8.3,128C16.6,160,33,224,50,229.3C66.2,235,83,181,99,149.3C115.9,117,132,107,149,133.3C165.5,160,182,224,199,256C215.2,288,232,288,248,245.3C264.8,203,281,117,298,96C314.5,75,331,117,348,128C364.1,139,381,117,397,138.7C413.8,160,430,224,447,224C463.4,224,480,160,497,138.7C513.1,117,530,139,546,149.3C562.8,160,579,160,596,176C612.4,192,629,224,646,218.7C662.1,213,679,171,695,154.7C711.7,139,728,149,745,133.3C761.4,117,778,75,794,58.7C811,43,828,53,844,64C860.7,75,877,85,894,122.7C910.3,160,927,224,943,213.3C960,203,977,117,993,106.7C1009.7,96,1026,160,1043,181.3C1059.3,203,1076,181,1092,197.3C1109,213,1126,267,1142,272C1158.6,277,1175,235,1192,224C1208.3,213,1225,235,1241,202.7C1257.9,171,1274,85,1291,58.7C1307.6,32,1324,64,1341,117.3C1357.2,171,1374,245,1390,256C1406.9,267,1423,213,1432,186.7L1440,160L1440,320L1431.7,320C1423.4,320,1407,320,1390,320C1373.8,320,1357,320,1341,320C1324.1,320,1308,320,1291,320C1274.5,320,1258,320,1241,320C1224.8,320,1208,320,1192,320C1175.2,320,1159,320,1142,320C1125.5,320,1109,320,1092,320C1075.9,320,1059,320,1043,320C1026.2,320,1010,320,993,320C976.6,320,960,320,943,320C926.9,320,910,320,894,320C877.2,320,861,320,844,320C827.6,320,811,320,794,320C777.9,320,761,320,745,320C728.3,320,712,320,695,320C678.6,320,662,320,646,320C629,320,612,320,596,320C579.3,320,563,320,546,320C529.7,320,513,320,497,320C480,320,463,320,447,320C430.3,320,414,320,397,320C380.7,320,364,320,348,320C331,320,314,320,298,320C281.4,320,265,320,248,320C231.7,320,215,320,199,320C182.1,320,166,320,149,320C132.4,320,116,320,99,320C82.8,320,66,320,50,320C33.1,320,17,320,8,320L0,320Z"></path></svg>