<?xml version="1.0" standalone="no"?><svg xmlns="http://www.w3.org/2000/svg" viewBox="0 0 1440 320"><path fill="#a2d9ff" fill-opacity="0.3" d="M0,128L10.9,154.7C21.8,181,44,235,65,234.7C87.3,235,109,181,131,176C152.7,171,175,213,196,224C218.2,235,240,213,262,186.7C283.6,160,305,128,327,138.7C349.1,149,371,203,393,229.3C414.5,256,436,256,458,261.3C480,267,502,277,524,240C545.5,203,567,117,589,117.3C610.9,117,633,203,655,240C676.4,277,698,267,720,250.7C741.8,235,764,213,785,208C807.3,203,829,213,851,208C872.7,203,895,181,916,149.3C938.2,117,960,75,982,53.3C1003.6,32,1025,32,1047,42.7C1069.1,53,1091,75,1113,85.3C1134.5,96,1156,96,1178,106.7C1200,117,1222,139,1244,176C1265.5,213,1287,267,1309,261.3C1330.9,256,1353,192,1375,170.7C1396.4,149,1418,171,1429,181.3L1440,192L1440,320L1429.1,320C1418.2,320,1396,320,1375,320C1352.7,320,1331,320,1309,320C1287.3,320,1265,320,1244,320C1221.8,320,1200,320,1178,320C1156.4,320,1135,320,1113,320C1090.9,320,1069,320,1047,320C1025.5,320,1004,320,982,320C960,320,938,320,916,320C894.5,320,873,320,851,320C829.1,320,807,320,785,320C763.6,320,742,320,720,320C698.2,320,676,320,655,320C632.7,320,611,320,589,320C567.3,320,545,320,524,320C501.8,320,480,320,458,320C436.4,320,415,320,393,320C370.9,320,349,320,327,320C305.5,320,284,320,262,320C240,320,218,320,196,320C174.5,320,153,320,131,320C109.1,320,87,320,65,320C43.6,320,22,320,11,320L0,320Z"></path></svg>