<?xml version="1.0" standalone="no"?><svg xmlns="http://www.w3.org/2000/svg" viewBox="0 0 1440 320"><path fill="#5000ca" fill-opacity="1" d="M0,96L8.6,101.3C17.1,107,34,117,51,106.7C68.6,96,86,64,103,90.7C120,117,137,203,154,213.3C171.4,224,189,160,206,128C222.9,96,240,96,257,133.3C274.3,171,291,245,309,256C325.7,267,343,213,360,170.7C377.1,128,394,96,411,117.3C428.6,139,446,213,463,256C480,299,497,309,514,314.7C531.4,320,549,320,566,309.3C582.9,299,600,277,617,245.3C634.3,213,651,171,669,138.7C685.7,107,703,85,720,90.7C737.1,96,754,128,771,154.7C788.6,181,806,203,823,197.3C840,192,857,160,874,138.7C891.4,117,909,107,926,101.3C942.9,96,960,96,977,90.7C994.3,85,1011,75,1029,106.7C1045.7,139,1063,213,1080,208C1097.1,203,1114,117,1131,122.7C1148.6,128,1166,224,1183,234.7C1200,245,1217,171,1234,144C1251.4,117,1269,139,1286,165.3C1302.9,192,1320,224,1337,245.3C1354.3,267,1371,277,1389,250.7C1405.7,224,1423,160,1431,128L1440,96L1440,320L1431.4,320C1422.9,320,1406,320,1389,320C1371.4,320,1354,320,1337,320C1320,320,1303,320,1286,320C1268.6,320,1251,320,1234,320C1217.1,320,1200,320,1183,320C1165.7,320,1149,320,1131,320C1114.3,320,1097,320,1080,320C1062.9,320,1046,320,1029,320C1011.4,320,994,320,977,320C960,320,943,320,926,320C908.6,320,891,320,874,320C857.1,320,840,320,823,320C805.7,320,789,320,771,320C754.3,320,737,320,720,320C702.9,320,686,320,669,320C651.4,320,634,320,617,320C600,320,583,320,566,320C548.6,320,531,320,514,320C497.1,320,480,320,463,320C445.7,320,429,320,411,320C394.3,320,377,320,360,320C342.9,320,326,320,309,320C291.4,320,274,320,257,320C240,320,223,320,206,320C188.6,320,171,320,154,320C137.1,320,120,320,103,320C85.7,320,69,320,51,320C34.3,320,17,320,9,320L0,320Z"></path></svg>